<svg xmlns="http://www.w3.org/2000/svg" viewBox="0 0 256 256" width="100%" height="100%">
  <defs>
    <linearGradient id="bg" x1="0" y1="0" x2="1" y2="1">
      <stop offset="0%" stop-color="#141724" />
      <stop offset="100%" stop-color="#080a0f" />
    </linearGradient>

    <linearGradient id="ringGrad" x1="0" y1="1" x2="1" y2="0">
      <stop offset="0%" stop-color="#8A2BE2" />
      <stop offset="50%" stop-color="#00D0FF" />
      <stop offset="100%" stop-color="#00FA9A" />
    </linearGradient>

    <linearGradient id="bar1Grad" x1="0" y1="1" x2="0" y2="0">
      <stop offset="0%" stop-color="#3A0088" />
      <stop offset="100%" stop-color="#8B3DFF" />
    </linearGradient>

    <linearGradient id="bar2Grad" x1="0" y1="1" x2="0" y2="0">
      <stop offset="0%" stop-color="#003580" />
      <stop offset="100%" stop-color="#00A2FF" />
    </linearGradient>

    <linearGradient id="bar3Grad" x1="0" y1="1" x2="0" y2="0">
      <stop offset="0%" stop-color="#00634A" />
      <stop offset="100%" stop-color="#00E58F" />
    </linearGradient>

    <filter id="shadow" x="-10%" y="-10%" width="120%" height="120%">
      <feDropShadow dx="0" dy="6" stdDeviation="5" flood-color="#000000" flood-opacity="0.65"/>
    </filter>
  </defs>

  <rect width="256" height="256" rx="56" fill="url(#bg)" />

  <path d="M 64 192 A 90 90 0 1 1 173 206" fill="none" stroke="url(#ringGrad)" stroke-width="8" stroke-linecap="round" />

  <rect x="76" y="130" width="24" height="60" rx="8" fill="url(#bar1Grad)" />
  <rect x="116" y="90" width="24" height="100" rx="8" fill="url(#bar2Grad)" />
  <rect x="156" y="45" width="24" height="145" rx="8" fill="url(#bar3Grad)" />

  <g filter="url(#shadow)">
    <polyline points="45,165 90,120 110,135 200,45" fill="none" stroke="#FFFFFF" stroke-width="10" stroke-linecap="round" stroke-linejoin="round" />
    <polyline points="170,45 200,45 200,75" fill="none" stroke="#FFFFFF" stroke-width="10" stroke-linecap="round" stroke-linejoin="round" />
  </g>
</svg>
